<svg xmlns="http://www.w3.org/2000/svg" version="1.1" xmlns:xlink="http://www.w3.org/1999/xlink" xmlns:svgjs="http://svgjs.com/svgjs" viewBox="0 0 140 140" width="140" height="140"><g transform="matrix(5.833333333333333,0,0,5.833333333333333,0,0)"><path d="M4.148,14.034.56,20.181c-.138.238-.028.395.243.349l3.358-.569,1.164,3.2c.094.258.286.277.427.04l3.065-5.148" fill="none" stroke="rgb(208,217,71)" stroke-linecap="round" stroke-linejoin="round"></path><path d="M19.852,14.034l3.588,6.147c.138.238.028.395-.243.349l-3.358-.569-1.164,3.2c-.094.258-.286.277-.427.04l-3.065-5.148" fill="none" stroke="rgb(208,217,71)" stroke-linecap="round" stroke-linejoin="round"></path><path d="M3.000 9.632 A9.000 9.000 0 1 0 21.000 9.632 A9.000 9.000 0 1 0 3.000 9.632 Z" fill="none" stroke="rgb(208,217,71)" stroke-linecap="round" stroke-linejoin="round"></path><path d="M15.94,7.162l-4.72,4.72a.75.75,0,0,1-1.061,0l-1.72-1.72" fill="none" stroke="rgb(208,217,71)" stroke-linecap="round" stroke-linejoin="round"></path></g></svg>