<svg xmlns="http://www.w3.org/2000/svg" version="1.1" xmlns:xlink="http://www.w3.org/1999/xlink" xmlns:svgjs="http://svgjs.com/svgjs" viewBox="0 0 140 140" width="140" height="140"><g transform="matrix(5.833333333333333,0,0,5.833333333333333,0,0)"><path d="M8.5 3.5L2.5 3.5 2.5 21.5" fill="none" stroke="#000000" stroke-linecap="round" stroke-linejoin="round"></path><path d="M12,2.5H9a.5.5,0,0,0-.5.5V5a.5.5,0,0,0,.5.5H20.5" fill="none" stroke="#000000" stroke-linecap="round" stroke-linejoin="round"></path><path d="M17.5,3.5V1A.5.5,0,0,0,17,.5H15a.5.5,0,0,0-.5.5V3.5" fill="none" stroke="#000000" stroke-linecap="round" stroke-linejoin="round"></path><path d="M14.5,7.5V8.713a5.5,5.5,0,1,0,3,0V7.5" fill="none" stroke="#000000" stroke-linecap="round" stroke-linejoin="round"></path><path d="M17.500 15.500 A1.000 1.000 0 1 0 19.500 15.500 A1.000 1.000 0 1 0 17.500 15.500 Z" fill="none" stroke="#000000" stroke-linecap="round" stroke-linejoin="round"></path><path d="M10.709 12.5L21.291 12.5" fill="none" stroke="#000000" stroke-linecap="round" stroke-linejoin="round"></path><path d="M10.5,23.5h-8v-2H9a2,2,0,0,1,1.6.8l.3.4A.5.5,0,0,1,10.5,23.5Z" fill="none" stroke="#000000" stroke-linecap="round" stroke-linejoin="round"></path><path d="M15.5,16.75a.25.25,0,0,1,.25.25" fill="none" stroke="#000000" stroke-linecap="round" stroke-linejoin="round"></path><path d="M15.25,17a.25.25,0,0,1,.25-.25" fill="none" stroke="#000000" stroke-linecap="round" stroke-linejoin="round"></path><path d="M15.5,17.25a.25.25,0,0,1-.25-.25" fill="none" stroke="#000000" stroke-linecap="round" stroke-linejoin="round"></path><path d="M15.75,17a.25.25,0,0,1-.25.25" fill="none" stroke="#000000" stroke-linecap="round" stroke-linejoin="round"></path><path d="M13.5,14.25a.25.25,0,0,1,.25.25" fill="none" stroke="#000000" stroke-linecap="round" stroke-linejoin="round"></path><path d="M13.25,14.5a.25.25,0,0,1,.25-.25" fill="none" stroke="#000000" stroke-linecap="round" stroke-linejoin="round"></path><path d="M13.5,14.75a.25.25,0,0,1-.25-.25" fill="none" stroke="#000000" stroke-linecap="round" stroke-linejoin="round"></path><path d="M13.75,14.5a.25.25,0,0,1-.25.25" fill="none" stroke="#000000" stroke-linecap="round" stroke-linejoin="round"></path></g></svg>