<?xml version="1.0" encoding="UTF-8"?>
<svg fill="rgb(208,217,71)" width="248px" height="248px" viewBox="0 0 248 248" version="1.1" xmlns="http://www.w3.org/2000/svg" xmlns:xlink="http://www.w3.org/1999/xlink">
    <title>Harvest by aboriginal</title>
    <g id="Page-1" stroke="none" stroke-width="1" fill="none" fill-rule="evenodd">
        <g id="Desktop" transform="translate(-347.000000, -314.000000)" stroke="rgb(208,217,71)">
            <g id="Harvest-by-aboriginal" transform="translate(350.000000, 317.000000)">
                <path d="M121,146.13 L121,185.166667 C121,186.777497 122.305836,188.083333 123.916667,188.083333 L170.583333,188.083333 C172.194164,188.083333 173.5,186.777497 173.5,185.166667 L173.5,146.13" id="Path" stroke-width="5.83333333" stroke-linecap="round" stroke-linejoin="round"></path>
                <path d="M109.333333,156 L143.481667,127.1075 C145.656716,125.266791 148.843284,125.266791 151.018333,127.1075 L185.166667,156" id="Path" stroke-width="5.83333333" stroke-linecap="round" stroke-linejoin="round"></path>
                <path d="M156,188.083333 L138.5,188.083333 L138.5,170.583333 C138.5,165.750842 142.417508,161.833333 147.25,161.833333 C152.082492,161.833333 156,165.750842 156,170.583333 L156,188.083333 Z" id="Path" stroke-width="5.83333333" stroke-linecap="round" stroke-linejoin="round"></path>
                <path d="M103.5,188.083333 L59.75,188.083333 C58.1391695,188.083333 56.8332866,186.777497 56.8332866,185.166667 L56.8332866,58.8283333 C56.8275046,57.7965071 57.367292,56.8383915 58.2528291,56.3087469 C59.1383661,55.7791022 60.2378465,55.7567627 61.1441667,56.25 L119.4775,88.0708333 C120.426673,88.5872753 121.012538,89.5861647 121.000197,90.6666667 L121.000197,123.916667" id="Path" stroke-width="5.83333333" stroke-linecap="round" stroke-linejoin="round"></path>
                <line x1="109.333333" y1="82.5525" x2="109.333333" y2="53.9166667" id="Path" stroke-width="5.83333333" stroke-linecap="round" stroke-linejoin="round"></line>
                <line x1="56.8333333" y1="88.9166667" x2="80.1666667" y2="88.9166667" id="Path" stroke-width="5.83333333" stroke-linecap="round" stroke-linejoin="round"></line>
                <line x1="56.8333333" y1="106.416667" x2="86" y2="106.416667" id="Path" stroke-width="5.83333333" stroke-linecap="round" stroke-linejoin="round"></line>
                <line x1="56.8333333" y1="123.916667" x2="97.6666667" y2="123.916667" id="Path" stroke-width="5.83333333" stroke-linecap="round" stroke-linejoin="round"></line>
                <path d="M80.1666667,188.083333 L80.1666667,167.666667 C80.1666667,166.055836 81.4725028,164.75 83.0833333,164.75 L94.75,164.75 C96.3608305,164.75 97.6666667,166.055836 97.6666667,167.666667 L97.6666667,188.083333" id="Path" stroke-width="5.83333333" stroke-linecap="round" stroke-linejoin="round"></path>
                <circle id="Oval" stroke-width="5.83" cx="121" cy="121" r="121"></circle>
            </g>
        </g>
    </g>
</svg>