<svg xmlns="http://www.w3.org/2000/svg" version="1.1" xmlns:xlink="http://www.w3.org/1999/xlink" xmlns:svgjs="http://svgjs.com/svgjs" viewBox="0 0 140 140" width="140" height="140"><g transform="matrix(5.833333333333333,0,0,5.833333333333333,0,0)"><path d="M12,16.308V23a.5.5,0,0,0,.5.5h8A.5.5,0,0,0,21,23V16.308" fill="none" stroke="rgb(208,217,71)" stroke-linecap="round" stroke-linejoin="round"></path><path d="M10,18l5.854-4.953a1,1,0,0,1,1.292,0L23,18" fill="none" stroke="rgb(208,217,71)" stroke-linecap="round" stroke-linejoin="round"></path><path d="M18,23.5H15v-3a1.5,1.5,0,0,1,3,0Z" fill="none" stroke="rgb(208,217,71)" stroke-linecap="round" stroke-linejoin="round"></path><path d="M9,23.5H1.5A.5.5,0,0,1,1,23V1.342A.5.5,0,0,1,1.739.9l10,5.455A.5.5,0,0,1,12,6.8v5.7" fill="none" stroke="rgb(208,217,71)" stroke-linecap="round" stroke-linejoin="round"></path><path d="M10 5.409L10 0.5" fill="none" stroke="rgb(208,217,71)" stroke-linecap="round" stroke-linejoin="round"></path><path d="M1 6.5L5 6.5" fill="none" stroke="rgb(208,217,71)" stroke-linecap="round" stroke-linejoin="round"></path><path d="M1 9.5L6 9.5" fill="none" stroke="rgb(208,217,71)" stroke-linecap="round" stroke-linejoin="round"></path><path d="M1 12.5L8 12.5" fill="none" stroke="rgb(208,217,71)" stroke-linecap="round" stroke-linejoin="round"></path><path d="M5,23.5V20a.5.5,0,0,1,.5-.5h2A.5.5,0,0,1,8,20v3.5" fill="none" stroke="rgb(208,217,71)" stroke-linecap="round" stroke-linejoin="round"></path></g></svg>