<svg xmlns="http://www.w3.org/2000/svg" version="1.1" xmlns:xlink="http://www.w3.org/1999/xlink" xmlns:svgjs="http://svgjs.com/svgjs" viewBox="0 0 140 140" width="140" height="140"><g transform="matrix(5.833333333333333,0,0,5.833333333333333,0,0)"><path d="M10.5,7.248v-2.5a.5.5,0,0,0-.5-.5H7a.5.5,0,0,0-.5.5v2.5" fill="none" stroke="#000000" stroke-linecap="round" stroke-linejoin="round"></path><path d="M8.501 1.248L8.501 4.248" fill="none" stroke="#000000" stroke-linecap="round" stroke-linejoin="round"></path><path d="M10.5,1.248H6.037a1,1,0,0,0-.832.445L4.5,2.748" fill="none" stroke="#000000" stroke-linecap="round" stroke-linejoin="round"></path><path d="M14.5,14.748v6.5a2,2,0,0,1-2,2h-8a2,2,0,0,1-2-2v-12a2,2,0,0,1,2-2h7" fill="none" stroke="#000000" stroke-linecap="round" stroke-linejoin="round"></path><path d="M21.5,9.248a4,4,0,1,1-8,0c0-1.756,2.529-6.409,3.565-8.242a.5.5,0,0,1,.871,0C18.973,2.84,21.5,7.492,21.5,9.248Z" fill="none" stroke="#000000" stroke-linecap="round" stroke-linejoin="round"></path></g></svg>